<svg width="31" height="31" viewBox="0 0 31 31" fill="none" xmlns="http://www.w3.org/2000/svg">
<g clip-path="url(#clip0_726_420)">
<path d="M8.16992 16.5106H11.568V30.5C11.568 30.7762 11.7918 31 12.068 31H17.8296C18.1058 31 18.3296 30.7762 18.3296 30.5V16.5765H22.236C22.49 16.5765 22.7037 16.3859 22.7327 16.1336L23.326 10.9834C23.3423 10.8417 23.2974 10.6998 23.2026 10.5935C23.1077 10.4871 22.9719 10.4262 22.8294 10.4262H18.3298V7.1978C18.3298 6.2246 18.8538 5.7311 19.8874 5.7311C20.0347 5.7311 22.8294 5.7311 22.8294 5.7311C23.1056 5.7311 23.3294 5.5072 23.3294 5.2311V0.5037C23.3294 0.2275 23.1056 0.0037 22.8294 0.0037H18.7749C18.7463 0.0023 18.6828 0 18.5892 0C17.8857 0 15.4404 0.1381 13.5088 1.9151C11.3686 3.8843 11.6661 6.2421 11.7372 6.6509V10.4261H8.16992C7.89372 10.4261 7.66992 10.6499 7.66992 10.9261V16.0105C7.66992 16.2867 7.89372 16.5106 8.16992 16.5106Z" fill="white"/>
</g>
<defs>
<clipPath id="clip0_726_420">
<rect width="31" height="31" fill="white"/>
</clipPath>
</defs>
</svg>
