<svg width="33" height="33" viewBox="0 0 33 33" fill="none" xmlns="http://www.w3.org/2000/svg">
<g clip-path="url(#clip0_726_423)">
<path d="M16.5 2.75C20.2359 2.75 20.702 2.76375 22.1677 2.8325C23.6321 2.90125 24.629 3.13088 25.5062 3.47188C26.4137 3.82113 27.1783 4.29412 27.9428 5.05725C28.6419 5.74461 29.1829 6.57606 29.5281 7.49375C29.8678 8.36962 30.0988 9.36787 30.1675 10.8322C30.2321 12.298 30.25 12.7641 30.25 16.5C30.25 20.2359 30.2362 20.702 30.1675 22.1677C30.0988 23.6321 29.8678 24.629 29.5281 25.5062C29.1839 26.4244 28.6428 27.2561 27.9428 27.9428C27.2552 28.6417 26.4238 29.1827 25.5062 29.5281C24.6304 29.8678 23.6321 30.0988 22.1677 30.1675C20.702 30.2321 20.2359 30.25 16.5 30.25C12.7641 30.25 12.298 30.2362 10.8322 30.1675C9.36787 30.0988 8.371 29.8678 7.49375 29.5281C6.5757 29.1837 5.7441 28.6425 5.05725 27.9428C4.35793 27.2555 3.81691 26.424 3.47188 25.5062C3.13088 24.6304 2.90125 23.6321 2.8325 22.1677C2.76787 20.702 2.75 20.2359 2.75 16.5C2.75 12.7641 2.76375 12.298 2.8325 10.8322C2.90125 9.3665 3.13088 8.371 3.47188 7.49375C3.81595 6.5755 4.35711 5.74382 5.05725 5.05725C5.7443 4.35769 6.57584 3.81663 7.49375 3.47188C8.371 3.13088 9.3665 2.90125 10.8322 2.8325C12.298 2.76787 12.7641 2.75 16.5 2.75ZM16.5 9.625C14.6766 9.625 12.928 10.3493 11.6386 11.6386C10.3493 12.928 9.625 14.6766 9.625 16.5C9.625 18.3234 10.3493 20.072 11.6386 21.3614C12.928 22.6507 14.6766 23.375 16.5 23.375C18.3234 23.375 20.072 22.6507 21.3614 21.3614C22.6507 20.072 23.375 18.3234 23.375 16.5C23.375 14.6766 22.6507 12.928 21.3614 11.6386C20.072 10.3493 18.3234 9.625 16.5 9.625ZM25.4375 9.28125C25.4375 8.82541 25.2564 8.38824 24.9341 8.06591C24.6118 7.74358 24.1746 7.5625 23.7188 7.5625C23.2629 7.5625 22.8257 7.74358 22.5034 8.06591C22.1811 8.38824 22 8.82541 22 9.28125C22 9.73709 22.1811 10.1743 22.5034 10.4966C22.8257 10.8189 23.2629 11 23.7188 11C24.1746 11 24.6118 10.8189 24.9341 10.4966C25.2564 10.1743 25.4375 9.73709 25.4375 9.28125ZM16.5 12.375C17.594 12.375 18.6432 12.8096 19.4168 13.5832C20.1904 14.3568 20.625 15.406 20.625 16.5C20.625 17.594 20.1904 18.6432 19.4168 19.4168C18.6432 20.1904 17.594 20.625 16.5 20.625C15.406 20.625 14.3568 20.1904 13.5832 19.4168C12.8096 18.6432 12.375 17.594 12.375 16.5C12.375 15.406 12.8096 14.3568 13.5832 13.5832C14.3568 12.8096 15.406 12.375 16.5 12.375Z" fill="white"/>
</g>
<defs>
<clipPath id="clip0_726_423">
<rect width="33" height="33" fill="white"/>
</clipPath>
</defs>
</svg>
