<svg width="23" height="23" viewBox="0 0 23 23" fill="none" xmlns="http://www.w3.org/2000/svg">
<g clip-path="url(#clip0_726_430)">
<path d="M5.35349 7.39941H0.736202C0.53128 7.39941 0.365234 7.56553 0.365234 7.77038V22.6037C0.365234 22.8087 0.53128 22.9747 0.736202 22.9747H5.35349C5.55841 22.9747 5.72446 22.8087 5.72446 22.6037V7.77038C5.72446 7.56553 5.55841 7.39941 5.35349 7.39941Z" fill="white"/>
<path d="M3.04683 0.0253906C1.36679 0.0253906 0 1.3907 0 3.06888C0 4.74781 1.36679 6.11364 3.04683 6.11364C4.72554 6.11364 6.09122 4.74774 6.09122 3.06888C6.09129 1.3907 4.72554 0.0253906 3.04683 0.0253906Z" fill="white"/>
<path d="M17.0976 7.03076C15.2431 7.03076 13.8722 7.82797 13.0407 8.7338V7.7704C13.0407 7.56555 12.8747 7.39943 12.6698 7.39943H8.24792C8.043 7.39943 7.87695 7.56555 7.87695 7.7704V22.6038C7.87695 22.8087 8.043 22.9747 8.24792 22.9747H12.8551C13.06 22.9747 13.2261 22.8087 13.2261 22.6038V15.2647C13.2261 12.7916 13.8978 11.8281 15.6218 11.8281C17.4993 11.8281 17.6485 13.3727 17.6485 15.3919V22.6038C17.6485 22.8088 17.8146 22.9748 18.0195 22.9748H22.6284C22.8333 22.9748 22.9994 22.8088 22.9994 22.6038V14.4675C22.9994 10.7901 22.2982 7.03076 17.0976 7.03076Z" fill="white"/>
</g>
<defs>
<clipPath id="clip0_726_430">
<rect width="23" height="23" fill="white"/>
</clipPath>
</defs>
</svg>
