<svg width="27" height="27" viewBox="0 0 27 27" fill="none" xmlns="http://www.w3.org/2000/svg">
<g clip-path="url(#clip0_726_427)">
<path d="M26.3882 4.99842C25.964 5.18655 25.5279 5.34532 25.0823 5.47423C25.6099 4.87761 26.0121 4.17561 26.2576 3.40742C26.3126 3.23523 26.2556 3.04675 26.1141 2.93414C25.9727 2.82143 25.7763 2.80793 25.6207 2.90017C24.6744 3.46142 23.6534 3.86477 22.5829 4.10062C21.5046 3.04693 20.0399 2.44727 18.5259 2.44727C15.3298 2.44727 12.7296 5.04737 12.7296 8.24329C12.7296 8.495 12.7456 8.74532 12.7771 8.99215C8.81116 8.64394 5.1241 6.69463 2.59219 3.58884C2.50196 3.47814 2.36295 3.41848 2.22064 3.42989C2.07823 3.44104 1.95029 3.52134 1.87835 3.64476C1.36482 4.52592 1.09334 5.53371 1.09334 6.5591C1.09334 7.9557 1.59197 9.28079 2.47278 10.3162C2.20496 10.2234 1.94506 10.1075 1.69701 9.96981C1.56384 9.89569 1.40132 9.89683 1.26902 9.97269C1.13663 10.0485 1.05363 10.1881 1.05014 10.3406C1.04953 10.3663 1.04953 10.392 1.04953 10.418C1.04953 12.5027 2.17152 14.3795 3.88689 15.4025C3.73952 15.3878 3.59224 15.3664 3.44592 15.3385C3.29506 15.3096 3.13994 15.3625 3.03822 15.4776C2.93631 15.5925 2.90261 15.7528 2.94955 15.8991C3.58449 17.8814 5.21921 19.3395 7.19543 19.7841C5.55636 20.8107 3.68195 21.3484 1.71426 21.3484C1.30368 21.3484 0.890757 21.3243 0.486628 21.2765C0.28587 21.2526 0.0939088 21.3711 0.0255378 21.562C-0.0428331 21.753 0.0296314 21.966 0.200428 22.0755C2.72824 23.6963 5.65112 24.5529 8.65291 24.5529C14.5541 24.5529 18.2457 21.7702 20.3033 19.4358C22.8692 16.5249 24.3408 12.672 24.3408 8.86508C24.3408 8.70604 24.3383 8.54543 24.3335 8.38535C25.3458 7.62264 26.2174 6.69959 26.9266 5.63867C27.0343 5.47754 27.0227 5.26459 26.8979 5.11626C26.7732 4.96785 26.5655 4.91986 26.3882 4.99842Z" fill="white"/>
</g>
<defs>
<clipPath id="clip0_726_427">
<rect width="27" height="27" fill="white"/>
</clipPath>
</defs>
</svg>
